<?xml version="1.0" standalone="no"?>
<!DOCTYPE svg PUBLIC "-//W3C//DTD SVG 20010904//EN"
 "http://www.w3.org/TR/2001/REC-SVG-20010904/DTD/svg10.dtd">
<svg version="1.0" xmlns="http://www.w3.org/2000/svg"
 width="256.000000pt" height="192.000000pt" viewBox="0 0 256.000000 192.000000"
 preserveAspectRatio="xMidYMid meet">
<metadata>
Created by potrace 1.10, written by Peter Selinger 2001-2011
</metadata>
<g transform="translate(0.000000,192.000000) scale(0.100000,-0.100000)"
fill="#000000" stroke="none">
<path d="M1166 1819 c-304 -41 -575 -254 -690 -543 -41 -102 -56 -187 -56
-322 0 -236 83 -440 249 -605 187 -187 461 -283 711 -249 299 40 547 218 675
483 60 125 76 190 82 338 4 96 2 145 -12 210 -53 264 -228 489 -470 606 -154
74 -331 104 -489 82z m272 -35 c291 -60 482 -262 458 -486 -6 -61 -35 -140
-55 -152 -6 -4 -24 2 -39 14 -25 19 -89 62 -294 191 -203 129 -207 132 -237
126 -27 -6 -162 -88 -449 -274 -53 -35 -99 -63 -103 -63 -3 0 -17 24 -30 53
-19 42 -24 69 -24 142 0 80 3 97 32 157 107 226 434 355 741 292z m-778 -323
c-26 -81 -25 -153 1 -227 29 -83 31 -97 17 -114 -20 -25 -84 -61 -93 -52 -5 4
-5 2 -2 -4 3 -6 -6 -17 -21 -25 -38 -20 -92 -62 -92 -73 0 -15 42 -56 57 -56
7 0 13 -4 13 -8 0 -5 20 -19 45 -32 25 -13 59 -36 77 -51 17 -16 44 -34 60
-41 15 -7 28 -16 28 -20 0 -5 5 -8 11 -8 6 0 31 -15 57 -32 26 -18 51 -33 55
-33 4 0 12 -7 17 -15 5 -8 10 -10 10 -5 0 6 6 3 13 -6 7 -8 37 -28 67 -45 30
-16 62 -36 70 -44 8 -8 29 -22 45 -30 17 -8 34 -21 38 -27 4 -7 13 -13 18 -13
6 0 26 -12 45 -27 44 -33 105 -36 157 -8 20 11 37 23 37 27 0 5 7 8 15 8 9 0
18 7 21 15 4 8 10 13 14 10 4 -3 13 2 20 10 7 8 19 15 26 15 8 0 14 5 14 10 0
6 7 10 15 10 8 0 15 4 15 8 0 5 25 22 55 37 30 16 55 33 55 37 0 4 6 8 13 8 8
0 22 9 32 20 10 11 22 20 27 20 5 0 24 11 42 25 18 14 38 25 44 25 7 0 12 3
12 8 0 4 20 16 44 27 24 11 42 23 40 27 -5 8 12 12 31 8 5 -1 7 2 3 5 -8 9 22
33 67 55 17 8 41 25 55 38 14 12 28 22 32 22 14 0 8 33 -9 52 -9 10 -22 18
-30 18 -7 0 -13 5 -13 10 0 6 -5 10 -11 10 -13 0 -121 73 -138 94 -11 13 -9
29 14 101 23 71 27 96 22 153 -3 37 -11 80 -18 95 -17 37 -4 46 22 16 61 -68
134 -209 162 -309 23 -86 28 -122 28 -227 -1 -103 -3 -118 -27 -217 -8 -34
-16 -65 -17 -71 -2 -5 -7 -17 -12 -25 -5 -8 -19 -33 -30 -55 -36 -68 -48 -88
-100 -155 -74 -97 -94 -118 -162 -166 -129 -93 -273 -142 -443 -151 -183 -9
-348 35 -503 136 -154 101 -313 336 -352 520 -17 82 -23 249 -11 307 3 16 8
44 11 62 15 92 97 260 166 343 23 28 43 48 45 46 2 -1 -6 -31 -16 -66z m1009
-233 c209 -134 388 -248 398 -254 10 -7 16 -14 13 -16 -3 -2 -184 -118 -402
-256 l-397 -253 -273 174 c-150 96 -326 209 -391 250 -65 42 -124 78 -130 80
-16 6 -19 3 113 87 198 126 370 236 520 334 80 52 151 95 157 95 7 1 183 -108
392 -241z"/>
<path d="M1055 319 c42 -14 298 -22 370 -12 47 7 22 9 -115 9 -96 -1 -200 2
-230 6 -43 5 -48 5 -25 -3z"/>
<path d="M1207 1289 c-81 -19 -157 -72 -206 -143 l-29 -41 122 -1 c180 -2 347
-55 470 -149 26 -19 49 -35 52 -35 13 0 -7 130 -26 174 -39 91 -127 165 -227
191 -63 17 -99 17 -156 4z m151 -24 c58 -14 127 -50 131 -67 0 -5 2 -7 4 -5 5
3 37 -30 37 -38 0 -3 9 -15 19 -26 10 -11 22 -33 25 -47 18 -89 19 -92 3 -92
-9 0 -19 5 -22 10 -3 6 -27 20 -53 31 -26 12 -60 31 -76 42 -15 11 -42 21 -60
23 -17 2 -42 8 -56 13 -36 14 -168 31 -216 28 -32 -2 -44 1 -54 16 -10 17 -10
19 4 14 9 -4 15 -1 13 6 -1 7 3 11 10 10 7 -2 10 4 7 12 -4 9 0 15 10 15 9 0
16 4 16 8 0 12 72 43 118 52 57 12 72 11 140 -5z"/>
<path d="M1013 1052 l-63 -3 0 -84 c0 -107 27 -174 99 -244 163 -159 427 -111
537 97 l22 40 -57 42 c-72 55 -201 116 -282 134 -72 16 -164 22 -256 18z m250
-49 c37 -8 74 -21 81 -28 7 -8 31 -18 52 -24 41 -12 116 -50 100 -51 -6 0 -1
-6 10 -14 18 -14 18 -15 2 -21 -13 -5 -18 -18 -18 -42 0 -32 -2 -35 -24 -29
-14 3 -27 2 -31 -4 -3 -5 -12 -7 -19 -4 -8 3 -17 0 -21 -5 -3 -6 -9 -9 -13 -7
-15 8 -29 -20 -21 -42 9 -23 24 -29 34 -12 3 6 13 10 21 10 20 0 17 -30 -3
-31 -11 0 -13 -3 -5 -6 26 -10 9 -20 -58 -33 -58 -11 -82 -11 -140 0 -38 7
-70 17 -70 22 0 4 -7 8 -15 8 -8 0 -15 5 -15 11 0 12 -61 65 -72 62 -4 -2 -5
4 -2 12 4 10 0 15 -11 15 -13 0 -16 6 -11 23 3 12 6 28 6 35 0 7 5 10 11 7 6
-4 19 2 29 12 17 19 17 20 -1 31 -26 16 -49 15 -49 -3 0 -25 -15 -17 -30 18
-20 44 -15 91 10 84 10 -2 31 4 46 14 33 21 113 19 227 -8z m272 -170 c4 -17
2 -29 -4 -31 -6 -2 -11 -10 -11 -17 0 -7 -7 -16 -16 -19 -23 -9 -34 -7 -34 5
0 6 7 9 15 5 8 -3 15 -1 15 5 0 6 7 18 16 26 14 15 14 17 0 25 -9 5 -14 13
-11 19 11 17 23 9 30 -18z"/>
<path d="M1257 910 c-9 -11 -12 -20 -6 -20 6 0 9 -6 6 -12 -2 -7 -11 -12 -18
-10 -8 2 -11 0 -7 -4 11 -10 98 -12 104 -3 3 5 -2 6 -10 3 -19 -7 -22 21 -3
30 6 4 -3 4 -20 1 -24 -3 -33 -1 -33 9 0 8 6 17 13 19 6 3 7 6 2 6 -6 1 -18
-8 -28 -19z"/>
<path d="M1087 863 c-2 -5 -7 -21 -11 -38 -7 -28 -6 -28 7 -11 10 14 16 16 22
6 4 -7 2 -16 -6 -21 -12 -7 -12 -9 0 -9 8 0 19 -7 26 -17 13 -18 45 -12 44 9
0 10 -2 10 -6 1 -5 -14 -33 -18 -33 -5 0 4 6 14 13 21 10 12 9 13 -7 7 -16 -5
-17 -2 -12 21 4 19 4 23 -3 14 -5 -7 -14 -10 -20 -7 -16 10 -13 24 7 29 15 4
15 5 0 6 -9 0 -19 -2 -21 -6z"/>
<path d="M1262 833 c-12 -21 1 -53 21 -53 8 0 7 3 -2 9 -9 6 -11 16 -7 27 7
18 8 18 22 0 8 -11 14 -15 14 -9 0 5 -9 18 -19 27 -18 17 -20 17 -29 -1z"/>
</g>
</svg>
